<svg width="39" height="28" viewBox="0 0 39 28" fill="none" xmlns="http://www.w3.org/2000/svg">
<g filter="url(#filter0_dd_2807_240645)">
<g clip-path="url(#clip0_2807_240645)">
<rect x="4" y="2" width="31" height="20.6199" rx="1.37778" fill="white"/>
<path d="M35 2H4V22.6199H35V2Z" fill="#B31942"/>
<path d="M4 4.37891H35H4ZM35 7.5512H4H35ZM4 10.7235H35H4ZM35 13.8958H4H35ZM4 17.0681H35H4ZM35 20.2404H4H35Z" fill="#000008"/>
<path d="M4 4.37891H35M35 7.5512H4M4 10.7235H35M35 13.8958H4M4 17.0681H35M35 20.2404H4" stroke="white" stroke-width="1.58615"/>
<path d="M19.6711 2H4V13.103H19.6711V2Z" fill="#0A3161"/>
<path d="M5.30507 2.47656L5.67799 3.62431L4.70166 2.91496H5.90847L4.93214 3.62431L5.30507 2.47656Z" fill="white"/>
<path d="M5.30507 4.69727L5.67799 5.84501L4.70166 5.13567H5.90847L4.93214 5.84501L5.30507 4.69727Z" fill="white"/>
<path d="M5.30507 6.91797L5.67799 8.06572L4.70166 7.35637H5.90847L4.93214 8.06572L5.30507 6.91797Z" fill="white"/>
<path d="M5.30507 9.1377L5.67799 10.2854L4.70166 9.5761H5.90847L4.93214 10.2854L5.30507 9.1377Z" fill="white"/>
<path d="M5.30507 11.3584L5.67799 12.5061L4.70166 11.7968H5.90847L4.93214 12.5061L5.30507 11.3584Z" fill="white"/>
<path d="M6.61122 3.58594L6.98415 4.73368L6.00781 4.02434H7.21463L6.23829 4.73368L6.61122 3.58594Z" fill="white"/>
<path d="M6.61122 5.80664L6.98415 6.95439L6.00781 6.24504H7.21463L6.23829 6.95439L6.61122 5.80664Z" fill="white"/>
<path d="M6.61122 8.02734L6.98415 9.17509L6.00781 8.46574H7.21463L6.23829 9.17509L6.61122 8.02734Z" fill="white"/>
<path d="M6.61122 10.2471L6.98415 11.3948L6.00781 10.6855H7.21463L6.23829 11.3948L6.61122 10.2471Z" fill="white"/>
<path d="M7.91737 2.47656L8.2903 3.62431L7.31396 2.91496H8.52078L7.54445 3.62431L7.91737 2.47656Z" fill="white"/>
<path d="M7.91737 4.69727L8.2903 5.84501L7.31396 5.13567H8.52078L7.54445 5.84501L7.91737 4.69727Z" fill="white"/>
<path d="M7.91737 6.91797L8.2903 8.06572L7.31396 7.35637H8.52078L7.54445 8.06572L7.91737 6.91797Z" fill="white"/>
<path d="M7.91737 9.1377L8.2903 10.2854L7.31396 9.5761H8.52078L7.54445 10.2854L7.91737 9.1377Z" fill="white"/>
<path d="M7.91737 11.3584L8.2903 12.5061L7.31396 11.7968H8.52078L7.54445 12.5061L7.91737 11.3584Z" fill="white"/>
<path d="M9.22352 3.58594L9.59645 4.73368L8.62012 4.02434H9.82693L8.8506 4.73368L9.22352 3.58594Z" fill="white"/>
<path d="M9.22352 5.80664L9.59645 6.95439L8.62012 6.24504H9.82693L8.8506 6.95439L9.22352 5.80664Z" fill="white"/>
<path d="M9.22352 8.02734L9.59645 9.17509L8.62012 8.46574H9.82693L8.8506 9.17509L9.22352 8.02734Z" fill="white"/>
<path d="M9.22352 10.2471L9.59645 11.3948L8.62012 10.6855H9.82693L8.8506 11.3948L9.22352 10.2471Z" fill="white"/>
<path d="M10.5292 2.47656L10.9021 3.62431L9.92578 2.91496H11.1326L10.1563 3.62431L10.5292 2.47656Z" fill="white"/>
<path d="M10.5292 4.69727L10.9021 5.84501L9.92578 5.13567H11.1326L10.1563 5.84501L10.5292 4.69727Z" fill="white"/>
<path d="M10.5292 6.91797L10.9021 8.06572L9.92578 7.35637H11.1326L10.1563 8.06572L10.5292 6.91797Z" fill="white"/>
<path d="M10.5292 9.1377L10.9021 10.2854L9.92578 9.5761H11.1326L10.1563 10.2854L10.5292 9.1377Z" fill="white"/>
<path d="M10.5292 11.3594L10.9021 12.5071L9.92578 11.7978H11.1326L10.1563 12.5071L10.5292 11.3594Z" fill="white"/>
<path d="M11.8353 3.58789L12.2083 4.73564L11.2319 4.02629H12.4387L11.4624 4.73564L11.8353 3.58789Z" fill="white"/>
<path d="M11.8353 5.80859L12.2083 6.95634L11.2319 6.24699H12.4387L11.4624 6.95634L11.8353 5.80859Z" fill="white"/>
<path d="M11.8353 8.0293L12.2083 9.17704L11.2319 8.4677H12.4387L11.4624 9.17704L11.8353 8.0293Z" fill="white"/>
<path d="M11.8353 10.249L12.2083 11.3968L11.2319 10.6874H12.4387L11.4624 11.3968L11.8353 10.249Z" fill="white"/>
<path d="M13.141 2.47656L13.5139 3.62431L12.5376 2.91496H13.7444L12.7681 3.62431L13.141 2.47656Z" fill="white"/>
<path d="M13.141 4.69727L13.5139 5.84501L12.5376 5.13567H13.7444L12.7681 5.84501L13.141 4.69727Z" fill="white"/>
<path d="M13.141 6.91797L13.5139 8.06572L12.5376 7.35637H13.7444L12.7681 8.06572L13.141 6.91797Z" fill="white"/>
<path d="M13.141 9.1377L13.5139 10.2854L12.5376 9.5761H13.7444L12.7681 10.2854L13.141 9.1377Z" fill="white"/>
<path d="M13.141 11.3594L13.5139 12.5071L12.5376 11.7978H13.7444L12.7681 12.5071L13.141 11.3594Z" fill="white"/>
<path d="M14.4476 3.58789L14.8206 4.73564L13.8442 4.02629H15.0511L14.0747 4.73564L14.4476 3.58789Z" fill="white"/>
<path d="M14.4476 5.80859L14.8206 6.95634L13.8442 6.24699H15.0511L14.0747 6.95634L14.4476 5.80859Z" fill="white"/>
<path d="M14.4476 8.0293L14.8206 9.17704L13.8442 8.4677H15.0511L14.0747 9.17704L14.4476 8.0293Z" fill="white"/>
<path d="M14.4476 10.249L14.8206 11.3968L13.8442 10.6874H15.0511L14.0747 11.3968L14.4476 10.249Z" fill="white"/>
<path d="M15.7533 2.47656L16.1262 3.62431L15.1499 2.91496H16.3567L15.3804 3.62431L15.7533 2.47656Z" fill="white"/>
<path d="M15.7533 4.69727L16.1262 5.84501L15.1499 5.13567H16.3567L15.3804 5.84501L15.7533 4.69727Z" fill="white"/>
<path d="M15.7533 6.91797L16.1262 8.06572L15.1499 7.35637H16.3567L15.3804 8.06572L15.7533 6.91797Z" fill="white"/>
<path d="M15.7533 9.1377L16.1262 10.2854L15.1499 9.5761H16.3567L15.3804 10.2854L15.7533 9.1377Z" fill="white"/>
<path d="M15.7533 11.3594L16.1262 12.5071L15.1499 11.7978H16.3567L15.3804 12.5071L15.7533 11.3594Z" fill="white"/>
<path d="M17.059 3.58789L17.4319 4.73564L16.4556 4.02629H17.6624L16.686 4.73564L17.059 3.58789Z" fill="white"/>
<path d="M17.059 5.80859L17.4319 6.95634L16.4556 6.24699H17.6624L16.686 6.95634L17.059 5.80859Z" fill="white"/>
<path d="M17.059 8.02832L17.4319 9.17607L16.4556 8.46672H17.6624L16.686 9.17607L17.059 8.02832Z" fill="white"/>
<path d="M17.059 10.249L17.4319 11.3968L16.4556 10.6874H17.6624L16.686 11.3968L17.059 10.249Z" fill="white"/>
<path d="M18.3651 2.47656L18.7381 3.62431L17.7617 2.91496H18.9685L17.9922 3.62431L18.3651 2.47656Z" fill="white"/>
<path d="M18.3651 4.69727L18.7381 5.84501L17.7617 5.13567H18.9685L17.9922 5.84501L18.3651 4.69727Z" fill="white"/>
<path d="M18.3651 6.91797L18.7381 8.06572L17.7617 7.35637H18.9685L17.9922 8.06572L18.3651 6.91797Z" fill="white"/>
<path d="M18.3651 9.1377L18.7381 10.2854L17.7617 9.5761H18.9685L17.9922 10.2854L18.3651 9.1377Z" fill="white"/>
<path d="M18.3651 11.3594L18.7381 12.5071L17.7617 11.7978H18.9685L17.9922 12.5071L18.3651 11.3594Z" fill="white"/>
</g>
<rect x="3.5" y="1.5" width="32" height="21.6199" rx="1.87778" stroke="white" stroke-linejoin="round"/>
</g>
<defs>
<filter id="filter0_dd_2807_240645" x="0.872696" y="0.290899" width="37.2546" height="26.8747" filterUnits="userSpaceOnUse" color-interpolation-filters="sRGB">
<feFlood flood-opacity="0" result="BackgroundImageFix"/>
<feColorMatrix in="SourceAlpha" type="matrix" values="0 0 0 0 0 0 0 0 0 0 0 0 0 0 0 0 0 0 127 0" result="hardAlpha"/>
<feOffset dy="1.4182"/>
<feGaussianBlur stdDeviation="1.06365"/>
<feComposite in2="hardAlpha" operator="out"/>
<feColorMatrix type="matrix" values="0 0 0 0 0.258824 0 0 0 0 0.278431 0 0 0 0 0.298039 0 0 0 0.08 0"/>
<feBlend mode="normal" in2="BackgroundImageFix" result="effect1_dropShadow_2807_240645"/>
<feColorMatrix in="SourceAlpha" type="matrix" values="0 0 0 0 0 0 0 0 0 0 0 0 0 0 0 0 0 0 127 0" result="hardAlpha"/>
<feOffset/>
<feGaussianBlur stdDeviation="0.0886377"/>
<feComposite in2="hardAlpha" operator="out"/>
<feColorMatrix type="matrix" values="0 0 0 0 0.258824 0 0 0 0 0.278431 0 0 0 0 0.298039 0 0 0 0.32 0"/>
<feBlend mode="normal" in2="effect1_dropShadow_2807_240645" result="effect2_dropShadow_2807_240645"/>
<feBlend mode="normal" in="SourceGraphic" in2="effect2_dropShadow_2807_240645" result="shape"/>
</filter>
<clipPath id="clip0_2807_240645">
<rect x="4" y="2" width="31" height="20.6199" rx="1.37778" fill="white"/>
</clipPath>
</defs>
</svg>
