<svg width="39" height="28" viewBox="0 0 39 28" fill="none" xmlns="http://www.w3.org/2000/svg">
<g filter="url(#filter0_dd_2807_240729)">
<g clip-path="url(#clip0_2807_240729)">
<rect x="4" y="2" width="31.5714" height="21" rx="1.35483" fill="white"/>
<path d="M3.95483 2.03711H35.5263V23.0371H3.95483V2.03711Z" fill="#D52B1E"/>
<path d="M12.2405 2.03711H27.2934V23.0371H12.2405V2.03711Z" fill="white"/>
<path d="M19.9288 16.1115L20.0699 18.8179H19.5055L19.6466 16.1115C19.6486 16.067 19.6407 16.0226 19.6233 15.9816C19.6059 15.9406 19.5796 15.904 19.5461 15.8745C19.5128 15.845 19.4732 15.8234 19.4303 15.8112C19.3875 15.7991 19.3424 15.7967 19.2985 15.8042L16.6047 16.2778L16.9685 15.2742C16.9832 15.2343 16.9851 15.1908 16.9739 15.1497C16.9626 15.1087 16.9388 15.0721 16.9058 15.0453L13.9548 12.6557L14.6196 12.3453C14.6645 12.324 14.7002 12.2872 14.7198 12.2415C14.7394 12.1959 14.7417 12.1447 14.7263 12.0975L14.143 10.3038L15.8427 10.6644C15.8887 10.674 15.9367 10.6674 15.9784 10.6456C16.0201 10.6239 16.053 10.5884 16.0716 10.5452L16.4009 9.77064L17.7274 11.1944C17.7577 11.2264 17.7976 11.2477 17.8411 11.2551C17.8845 11.2625 17.9292 11.2556 17.9684 11.2354C18.0076 11.2153 18.0393 11.183 18.0586 11.1434C18.0779 11.1037 18.0838 11.0589 18.0755 11.0156L17.4357 7.71659L18.4612 8.30928C18.4853 8.32339 18.512 8.33241 18.5397 8.33577C18.5674 8.33914 18.5955 8.33678 18.6222 8.32884C18.649 8.3209 18.6738 8.30755 18.6952 8.28963C18.7166 8.2717 18.7341 8.24957 18.7466 8.22461L19.7877 6.17997L20.8289 8.22461C20.8413 8.24957 20.8588 8.2717 20.8802 8.28963C20.9016 8.30755 20.9264 8.3209 20.9532 8.32884C20.9799 8.33678 21.008 8.33914 21.0357 8.33577C21.0634 8.33241 21.0901 8.32339 21.1142 8.30928L22.1397 7.71659L21.4999 11.0156C21.4916 11.0589 21.4975 11.1037 21.5168 11.1434C21.5361 11.183 21.5678 11.2153 21.607 11.2354C21.6462 11.2556 21.6909 11.2625 21.7343 11.2551C21.7778 11.2477 21.8177 11.2264 21.848 11.1944L23.1745 9.77064L23.5038 10.5452C23.5224 10.5884 23.5553 10.6239 23.597 10.6456C23.6387 10.6674 23.6867 10.674 23.7327 10.6644L25.4324 10.3038L24.8491 12.0975C24.8337 12.1447 24.836 12.1959 24.8556 12.2415C24.8752 12.2872 24.9109 12.324 24.9558 12.3453L25.6206 12.6557L22.6696 15.0453C22.6366 15.0721 22.6128 15.1087 22.6015 15.1497C22.5903 15.1908 22.5922 15.2343 22.6069 15.2742L22.9707 16.2778L20.2769 15.8042C20.233 15.7967 20.188 15.7991 20.1451 15.8112C20.1022 15.8234 20.0626 15.845 20.0293 15.8745C19.9958 15.904 19.9695 15.9406 19.9521 15.9816C19.9347 16.0226 19.9268 16.067 19.9288 16.1115Z" fill="#D52B1E"/>
</g>
<rect x="3.5" y="1.5" width="32.5714" height="22" rx="1.85483" stroke="white" stroke-linejoin="round"/>
</g>
<defs>
<filter id="filter0_dd_2807_240729" x="0.71947" y="0.239823" width="38.1326" height="27.5611" filterUnits="userSpaceOnUse" color-interpolation-filters="sRGB">
<feFlood flood-opacity="0" result="BackgroundImageFix"/>
<feColorMatrix in="SourceAlpha" type="matrix" values="0 0 0 0 0 0 0 0 0 0 0 0 0 0 0 0 0 0 127 0" result="hardAlpha"/>
<feOffset dy="1.52035"/>
<feGaussianBlur stdDeviation="1.14027"/>
<feComposite in2="hardAlpha" operator="out"/>
<feColorMatrix type="matrix" values="0 0 0 0 0.258824 0 0 0 0 0.278431 0 0 0 0 0.298039 0 0 0 0.08 0"/>
<feBlend mode="normal" in2="BackgroundImageFix" result="effect1_dropShadow_2807_240729"/>
<feColorMatrix in="SourceAlpha" type="matrix" values="0 0 0 0 0 0 0 0 0 0 0 0 0 0 0 0 0 0 127 0" result="hardAlpha"/>
<feOffset/>
<feGaussianBlur stdDeviation="0.0950221"/>
<feComposite in2="hardAlpha" operator="out"/>
<feColorMatrix type="matrix" values="0 0 0 0 0.258824 0 0 0 0 0.278431 0 0 0 0 0.298039 0 0 0 0.32 0"/>
<feBlend mode="normal" in2="effect1_dropShadow_2807_240729" result="effect2_dropShadow_2807_240729"/>
<feBlend mode="normal" in="SourceGraphic" in2="effect2_dropShadow_2807_240729" result="shape"/>
</filter>
<clipPath id="clip0_2807_240729">
<rect x="4" y="2" width="31.5714" height="21" rx="1.35483" fill="white"/>
</clipPath>
</defs>
</svg>
