<svg xmlns="http://www.w3.org/2000/svg" width="27" height="28" viewBox="0 0 27 28" fill="none">
<g clip-path="url(#clip0_2735_469959)">
<g clip-path="url(#clip1_2735_469959)">
<path d="M9.46447 21.7258C9.88697 22.2817 10.1316 22.971 10.1316 23.7271C10.1316 25.5727 8.64171 27.0626 6.79605 27.0626C4.95039 27.0626 3.46053 25.5727 3.46053 23.7271C3.46053 21.8814 4.95039 20.3915 6.79605 20.3915C7.28526 20.3915 7.74112 20.4916 8.16362 20.6806L9.73132 18.7127C8.70842 17.5675 8.29704 16.0554 8.51941 14.61L6.26237 13.8539C5.66197 14.7767 4.63908 15.3883 3.46053 15.3883C1.61487 15.3883 0.125 13.8984 0.125 12.0527C0.125 10.2071 1.61487 8.71721 3.46053 8.71721C5.30618 8.71721 6.79605 10.2071 6.79605 12.0527C6.79605 12.1306 6.79605 12.2084 6.78493 12.2862L9.04197 13.0423C9.75355 11.6969 11.0655 10.7185 12.6221 10.4628V8.06122C11.1989 7.68319 10.1316 6.38234 10.1316 4.82576C10.1316 2.9801 11.6214 1.49023 13.4671 1.49023C15.3128 1.49023 16.8026 2.9801 16.8026 4.82576C16.8026 6.38234 15.7353 7.68319 14.301 8.06122V10.4628C15.8576 10.7185 17.1695 11.6969 17.8811 13.0423L20.1382 12.2862C20.1382 12.2084 20.1382 12.1306 20.1382 12.0527C20.1382 10.2071 21.628 8.71721 23.4737 8.71721C25.3193 8.71721 26.8092 10.2071 26.8092 12.0527C26.8092 13.8984 25.3193 15.3883 23.4737 15.3883C22.2951 15.3883 21.2722 14.7767 20.6718 13.865L18.4148 14.6211C18.6372 16.0554 18.2369 17.5675 17.2029 18.7238L18.7706 20.6917C19.1931 20.4916 19.6489 20.3915 20.1382 20.3915C21.9838 20.3915 23.4737 21.8814 23.4737 23.7271C23.4737 25.5727 21.9838 27.0626 20.1382 27.0626C18.2925 27.0626 16.8026 25.5727 16.8026 23.7271C16.8026 22.971 17.0472 22.2817 17.4697 21.7258L15.902 19.7578C14.4011 20.5917 12.5554 20.6028 11.0433 19.7578L9.46447 21.7258Z" fill="#ffffff"/>
</g>
</g>
<defs fill="#000000">
<clipPath id="clip0_2735_469959" fill="#000000">
<rect width="26.6842" height="26.6842" fill="white" transform="translate(0.125 0.933594)"/>
</clipPath>
<clipPath id="clip1_2735_469959" fill="#000000">
<rect width="26.6842" height="26.6842" fill="white" transform="translate(0.125 0.933594)"/>
</clipPath>
</defs>
</svg>