<svg width="234" height="234" viewBox="0 0 234 234" fill="none" xmlns="http://www.w3.org/2000/svg">
<g filter="url(#filter0_f_2774_154374)">
<circle cx="116.75" cy="117" r="38" fill="#DDE695"/>
</g>
<circle cx="116.75" cy="117" r="38" fill="#EBF0C2"/>
<circle cx="116.75" cy="117" r="31" fill="white"/>
<path fill-rule="evenodd" clip-rule="evenodd" d="M118.82 113.518C118.82 113.992 119.299 114.289 119.682 114.053L131.738 106.631C132.061 106.433 132.127 105.96 131.843 105.703C131.614 105.496 131.368 105.309 131.103 105.147L120.199 98.3983C119.983 98.2626 119.759 98.1441 119.531 98.0423C119.181 97.8864 118.82 98.1823 118.82 98.5885V113.518Z" fill="#C6D54F"/>
<path fill-rule="evenodd" clip-rule="evenodd" d="M100.649 109.081C100.293 108.883 99.8383 109.072 99.7886 109.468C99.764 109.663 99.75 109.861 99.75 110.06V123.12C99.75 123.403 99.7732 123.683 99.8162 123.958C99.8763 124.343 100.32 124.519 100.666 124.325L113.377 117.228C113.788 116.998 113.788 116.421 113.377 116.192L100.649 109.081Z" fill="#C6D54F"/>
<path fill-rule="evenodd" clip-rule="evenodd" d="M134.221 110.062C134.221 109.861 134.208 109.662 134.184 109.466C134.138 109.071 133.708 108.884 133.372 109.081L121.311 116.192C120.921 116.422 120.921 116.999 121.311 117.228L133.353 124.325C133.681 124.519 134.101 124.343 134.158 123.958C134.199 123.684 134.221 123.405 134.221 123.122V110.062Z" fill="#C6D54F"/>
<path fill-rule="evenodd" clip-rule="evenodd" d="M119.693 120.084C119.304 119.855 118.82 120.143 118.82 120.603V134.837C118.82 135.23 119.184 135.516 119.537 135.366C119.768 135.267 119.994 135.152 120.212 135.021L131.245 128.484C131.447 128.365 131.639 128.234 131.822 128.092C132.129 127.853 132.07 127.381 131.736 127.184L119.693 120.084Z" fill="#C6D54F"/>
<path fill-rule="evenodd" clip-rule="evenodd" d="M115.887 120.603C115.887 120.143 115.376 119.855 114.966 120.084L102.254 127.184C101.901 127.381 101.839 127.853 102.163 128.092C102.355 128.233 102.555 128.362 102.766 128.48L114.413 135.018C114.646 135.151 114.885 135.267 115.13 135.366C115.503 135.516 115.887 135.23 115.887 134.837V120.603Z" fill="#C6D54F"/>
<path fill-rule="evenodd" clip-rule="evenodd" d="M114.977 114.053C115.382 114.289 115.887 113.992 115.887 113.518V98.5877C115.887 98.1823 115.507 97.8867 115.139 98.0421C114.898 98.1437 114.663 98.2622 114.435 98.3978L102.928 105.144C102.646 105.307 102.385 105.496 102.141 105.704C101.841 105.961 101.911 106.434 102.251 106.632L114.977 114.053Z" fill="#C6D54F"/>
<circle cx="116.75" cy="117" r="8" fill="white"/>
<path fill-rule="evenodd" clip-rule="evenodd" d="M117.151 119.371L119.285 120.722C119.676 120.969 120.154 120.603 120.051 120.14L119.486 117.601L121.373 115.889C121.718 115.577 121.532 114.985 121.08 114.948L118.596 114.727L117.624 112.327C117.449 111.891 116.852 111.891 116.678 112.327L115.706 114.722L113.222 114.942C112.769 114.98 112.584 115.572 112.928 115.884L114.816 117.595L114.25 120.135C114.147 120.598 114.626 120.964 115.016 120.716L117.151 119.371Z" fill="#C6D54F"/>
<defs>
<filter id="filter0_f_2774_154374" x="0.449997" y="0.699997" width="232.6" height="232.6" filterUnits="userSpaceOnUse" color-interpolation-filters="sRGB">
<feFlood flood-opacity="0" result="BackgroundImageFix"/>
<feBlend mode="normal" in="SourceGraphic" in2="BackgroundImageFix" result="shape"/>
<feGaussianBlur stdDeviation="39.15" result="effect1_foregroundBlur_2774_154374"/>
</filter>
</defs>
</svg>
