<svg width="27" height="28" viewBox="0 0 27 28" fill="none" xmlns="http://www.w3.org/2000/svg">
<path d="M20.1384 13.2337V13.7896H20.6943H22.362C23.5894 13.7896 24.5857 14.7859 24.5857 16.0133C24.5857 17.2406 23.5894 18.2369 22.362 18.2369H20.6943H20.1384V18.7929V23.2402C20.1384 24.1562 19.3866 24.908 18.4706 24.908H14.8015V23.7962C14.8015 21.8325 13.2073 20.2383 11.2436 20.2383C9.27995 20.2383 7.68573 21.8325 7.68573 23.7962V24.908H4.01665C3.10065 24.908 2.34889 24.1562 2.34889 23.2402V19.5712H3.46073C5.4244 19.5712 7.01863 17.9769 7.01863 16.0133C7.01863 14.0496 5.4244 12.4554 3.46073 12.4554H2.36001V8.78629C2.36001 7.86665 3.10427 7.11852 4.01665 7.11852H8.46402H9.01994V6.5626V4.89484C9.01994 3.66752 10.0163 2.67116 11.2436 2.67116C12.4709 2.67116 13.4673 3.66752 13.4673 4.89484V6.5626V7.11852H14.0232H18.4706C19.3866 7.11852 20.1384 7.87029 20.1384 8.78629V13.2337Z" fill="#024D95" stroke="#024D95" stroke-width="1.11184"/>
</svg>
